<svg width="26" height="26" viewBox="0 0 26 26" fill="none" xmlns="http://www.w3.org/2000/svg">
<path d="M23.3248 22.1761L18.2396 17.0919C19.7135 15.3224 20.4485 13.0528 20.2916 10.7551C20.1347 8.45754 19.0981 6.30886 17.3974 4.75609C15.6967 3.20332 13.4628 2.366 11.1604 2.41833C8.85803 2.47065 6.66448 3.40859 5.03605 5.03702C3.40761 6.66546 2.46968 8.85901 2.41735 11.1614C2.36503 13.4637 3.20234 15.6976 4.75512 17.3984C6.30789 19.0991 8.45657 20.1357 10.7542 20.2926C13.0518 20.4494 15.3214 19.7145 17.0909 18.2406L22.1751 23.3258C22.2506 23.4013 22.3403 23.4612 22.4389 23.502C22.5375 23.5429 22.6432 23.5639 22.75 23.5639C22.8567 23.5639 22.9625 23.5429 23.0611 23.502C23.1597 23.4612 23.2493 23.4013 23.3248 23.3258C23.4003 23.2503 23.4602 23.1607 23.5011 23.0621C23.5419 22.9634 23.5629 22.8577 23.5629 22.751C23.5629 22.6442 23.5419 22.5385 23.5011 22.4399C23.4602 22.3412 23.4003 22.2516 23.3248 22.1761ZM4.06249 11.376C4.06249 9.92969 4.49136 8.51589 5.29487 7.31336C6.09837 6.11082 7.24043 5.17356 8.57662 4.6201C9.9128 4.06663 11.3831 3.92182 12.8016 4.20397C14.2201 4.48613 15.523 5.18257 16.5457 6.20525C17.5684 7.22792 18.2648 8.53088 18.547 9.94937C18.8291 11.3679 18.6843 12.8382 18.1309 14.1743C17.5774 15.5105 16.6401 16.6526 15.4376 17.4561C14.2351 18.2596 12.8213 18.6885 11.375 18.6885C9.43625 18.6863 7.57754 17.9152 6.20664 16.5443C4.83575 15.1734 4.06464 13.3147 4.06249 11.376Z" fill="#585866"/>
</svg>
